Coordinates
version=1
nRows=7
nColumns=40
inDegrees=yes

Units are S.I. units (second, meters, Newtons, ...)
Angles are in degrees.

endheader
time	pelvis_tilt	pelvis_list	pelvis_rotation	pelvis_tx	pelvis_ty	pelvis_tz	hip_flexion_r	hip_adduction_r	hip_rotation_r	knee_angle_r	knee_angle_r_beta	ankle_angle_r	subtalar_angle_r	mtp_angle_r	hip_flexion_l	hip_adduction_l	hip_rotation_l	knee_angle_l	knee_angle_l_beta	ankle_angle_l	subtalar_angle_l	mtp_angle_l	lumbar_extension	lumbar_bending	lumbar_rotation	arm_flex_r	arm_add_r	arm_rot_r	elbow_flex_r	pro_sup_r	wrist_flex_r	wrist_dev_r	arm_flex_l	arm_add_l	arm_rot_l	elbow_flex_l	pro_sup_l	wrist_flex_l	wrist_dev_l
      0.53000000	     -0.34344256	     -3.55390851	      0.82889894	     -0.90714026	      0.89979830	      1.43689625	     -2.76605901	      3.72224161	    -14.73837454	    -14.77287368	     -0.25783529	     12.04604278	     10.98992907	     -6.61570598	     24.82821548	      5.57891740	     13.62528579	    -33.83264388	     -0.59049103	      2.17183406	      1.21008934	    -11.41495141	    -12.67773035	      7.22247161	      7.49223312	     17.86427259	    -13.97813999	     15.92075608	     20.85141807	     89.95437384	      0.00000000	      0.00000000	     -2.28623232	     10.24428690	    -13.73442765	     23.88797616	     89.95437384	      0.00000000	      0.00000000
      0.54000000	     -0.42428344	     -3.64521122	      0.52982619	     -0.89626446	      0.89808661	      1.43722855	     -3.35629173	      3.84224179	    -14.39388621	    -14.94373405	     -0.26081736	     12.45187966	     10.93935455	     -6.81450919	     25.67916639	      5.49902651	     13.41863998	    -31.35909907	     -0.54731953	      0.59695587	      0.81201768	    -10.94639670	    -12.63796389	      7.24664631	      7.60764809	     18.41802636	    -14.12882477	     15.95254512	     21.81330640	     89.95437384	      0.00000000	      0.00000000	     -3.07063250	     10.22522819	    -13.96090192	     22.94302674	     89.95437384	      0.00000000	      0.00000000
      0.55000000	     -0.15961410	     -3.25995070	     -0.19335278	     -0.88514724	      0.89693504	      1.43815880	     -4.22079886	      3.37271724	    -13.78387408	    -15.36371175	     -0.26814736	     12.99128509	     10.73105787	     -7.26772984	     25.76548636	      5.25893493	     14.19158939	    -28.61683825	     -0.49945805	     -1.04878372	      0.24167337	    -10.25636631	    -13.03677247	      6.61411584	      8.09212727	     18.91394045	    -14.27335300	     16.23827802	     22.89070951	     89.95437384	      0.00000000	      0.00000000	     -3.59385918	     10.26145579	    -14.55696057	     21.63770183	     89.95437384	      0.00000000	      0.00000000
      0.56000000	     -0.19092290	     -3.32362813	     -0.55252902	     -0.87405710	      0.89513788	      1.43831033	     -4.76653194	      3.41655019	    -13.28269133	    -15.73727976	     -0.27466735	     13.32382477	     10.63087065	     -7.46131283	     26.32427311	      5.23958445	     14.12436589	    -26.18173417	     -0.45695747	     -1.79875887	     -0.23633058	     -9.85423071	    -13.05761042	      6.62294369	      8.16499034	     19.47383283	    -14.39759370	     16.30491218	     23.83109976	     89.95437384	      0.00000000	      0.00000000	     -4.32038447	     10.17590749	    -14.92792703	     20.55418761	     89.95437384	      0.00000000	      0.00000000
      0.57000000	     -0.30400250	     -3.53460936	     -0.68040359	     -0.86253495	      0.89307277	      1.43842433	     -5.33428106	      3.63864552	    -13.27945826	    -15.97487486	     -0.27881416	     13.56729350	     10.48029974	     -7.50682215	     27.18396002	      5.54284861	     14.65809261	    -24.45127628	     -0.42675528	     -1.69008564	     -0.30544350	     -9.68000633	    -12.89182771	      6.78546145	      7.97429685	     19.99384311	    -14.35604852	     16.27284510	     24.53989537	     89.95437384	      0.00000000	      0.00000000	     -5.24293966	     10.17133544	    -15.12627814	     19.73903563	     89.95437384	      0.00000000	      0.00000000
      0.58000000	     -0.04723386	     -3.07439885	     -1.36696418	     -0.85116694	      0.89199795	      1.43882479	     -6.08576085	      3.03832757	    -12.44331718	    -16.61881152	     -0.29005298	     14.15405088	      9.70652090	     -7.84946832	     26.88999374	      5.11844480	     15.16591887	    -21.64416751	     -0.37776199	     -2.09773447	     -0.52959322	     -9.11741571	    -13.27512150	      6.09088635	      8.43082560	     20.25187528	    -14.58047707	     16.47579193	     25.82044627	     89.95437384	      0.00000000	      0.00000000	     -5.52847953	     10.02178297	    -15.67293663	     18.12426888	     89.95437384	      0.00000000	      0.00000000
      0.59000000	     -0.10030912	     -3.10420381	     -1.67724828	     -0.83960636	      0.89023446	      1.43907790	     -6.64095515	      3.02469454	    -11.97624311	    -17.02838904	     -0.29720146	     14.35400924	      9.32158867	     -8.02316735	     27.38364641	      5.26172099	     15.67262948	    -19.95762376	     -0.34832625	     -1.87770752	     -0.40326158	     -8.78941862	    -13.21922909	      5.99609134	      8.44421974	     20.59738214	    -14.59965508	     16.48213025	     26.68154339	     89.95437384	      0.00000000	      0.00000000	     -6.10908953	      9.92484542	    -16.21549742	     16.91526202	     89.95437384	      0.00000000	      0.00000000
